<?xml version="1.0" standalone="no"?>
<!DOCTYPE svg PUBLIC "-//W3C//DTD SVG 20010904//EN"
 "http://www.w3.org/TR/2001/REC-SVG-20010904/DTD/svg10.dtd">
<svg version="1.0" xmlns="http://www.w3.org/2000/svg"
 width="1280.000000pt" height="1280.000000pt" viewBox="0 0 1280.000000 1280.000000"
 preserveAspectRatio="xMidYMid meet">

<g transform="translate(0.000000,1280.000000) scale(0.100000,-0.100000)"
fill="#000000" stroke="none">
<path d="M8263 11508 c-169 -385 -656 -1502 -798 -1828 -73 -168 -248 -570
-390 -895 -141 -324 -311 -714 -377 -865 -66 -151 -152 -347 -190 -435 -39
-88 -122 -279 -185 -425 -63 -146 -155 -355 -203 -465 -237 -539 -360 -826
-360 -840 0 -13 149 -15 1293 -17 l1292 -3 0 -1215 0 -1215 -3187 -3 c-2700
-2 -3188 0 -3188 12 0 7 27 74 59 147 61 138 147 337 316 729 54 124 128 295
165 380 37 85 120 274 183 420 275 633 458 1055 577 1330 70 162 144 331 163
375 19 44 79 181 132 305 54 124 105 243 115 265 10 22 61 141 115 265 53 124
105 243 115 265 10 22 39 90 65 150 26 61 56 130 68 155 11 25 34 79 52 120
148 341 364 840 414 954 33 76 58 143 55 147 -7 11 -2714 12 -2732 1 -10 -7
-12 -681 -10 -3338 l3 -3329 4543 -3 4542 -2 0 4535 c0 2494 1 4538 3 4543 1
4 -572 8 -1273 10 l-1276 2 -101 -232z"/>
<path d="M4801 2200 c-150 -40 -274 -127 -359 -253 -78 -118 -97 -185 -97
-347 0 -106 4 -146 18 -185 59 -161 176 -295 318 -363 225 -109 475 -82 672
73 77 61 150 162 188 260 75 193 38 434 -91 598 -153 192 -412 279 -649 217z
m278 -353 c24 -12 61 -41 82 -65 94 -108 91 -262 -9 -365 -59 -61 -105 -81
-192 -81 -117 -1 -194 47 -252 157 -34 65 -31 165 7 235 56 103 160 158 275
145 25 -3 65 -15 89 -26z"/>
<path d="M6485 2206 c-102 -25 -210 -100 -263 -183 -60 -96 -63 -123 -60 -593
l3 -425 170 0 170 0 5 418 5 419 24 19 c28 23 78 25 109 3 16 -11 22 -25 22
-53 0 -43 -21 -68 -66 -80 l-29 -7 0 -155 0 -154 38 -3 c46 -4 191 25 232 45
99 51 158 134 182 256 16 75 15 87 0 163 -27 130 -95 227 -203 290 -88 52
-225 68 -339 40z"/>
<path d="M8674 2201 c-228 -62 -392 -227 -450 -453 -12 -47 -15 -92 -12 -178
5 -100 9 -125 36 -190 88 -210 259 -347 481 -385 87 -15 102 -15 195 0 295 49
505 274 523 561 8 124 -9 210 -62 319 -71 148 -193 254 -357 312 -100 36 -252
42 -354 14z m275 -354 c88 -44 151 -146 151 -248 0 -92 -66 -195 -155 -242
-59 -31 -173 -30 -238 3 -84 42 -142 128 -153 228 -11 90 58 212 146 257 74
38 172 39 249 2z"/>
<path d="M11155 2192 l-170 -3 -75 -111 c-41 -61 -79 -113 -85 -114 -5 -2 -41
48 -80 111 l-70 115 -303 -3 -303 -2 -48 -120 c-27 -65 -53 -121 -57 -122 -5
-2 -38 53 -74 122 l-65 125 -183 0 c-101 0 -182 -3 -180 -7 6 -13 84 -163 148
-283 33 -63 81 -156 107 -206 l46 -91 -160 -294 c-88 -162 -158 -297 -156
-301 2 -5 83 -8 179 -8 l175 0 31 68 c17 37 43 98 58 135 15 37 31 69 36 69 5
1 41 -59 79 -133 l70 -134 183 -3 c115 -1 182 1 182 7 0 6 -11 30 -23 53 -27
48 -96 180 -212 402 l-78 149 32 61 c17 33 65 124 107 201 41 77 82 155 91
173 9 17 19 32 22 32 3 0 40 -53 81 -118 41 -64 99 -155 130 -202 l55 -85 5
-335 5 -335 170 0 170 0 5 330 5 330 145 227 c181 284 182 286 178 295 -1 5
-79 7 -173 5z"/>
<path d="M1450 2020 l0 -170 183 0 c101 0 186 -2 189 -5 5 -5 -71 -185 -291
-690 -33 -76 -57 -143 -53 -147 5 -5 204 -7 443 -6 l434 3 3 173 2 172 -175 0
c-143 0 -175 3 -175 14 0 8 23 65 51 127 85 191 299 686 299 693 0 3 -205 6
-455 6 l-455 0 0 -170z"/>
<path d="M2700 2176 c-97 -27 -167 -86 -209 -175 l-26 -56 0 -345 c0 -339 0
-346 23 -395 41 -89 115 -151 217 -180 43 -13 103 -17 244 -19 l186 -1 3 167
2 166 -156 4 c-140 3 -157 5 -170 22 -19 27 -18 49 5 77 18 23 26 24 160 27
l142 4 -3 126 -3 127 -125 6 c-69 3 -133 9 -142 13 -13 6 -18 20 -18 45 0 53
23 61 180 61 l130 0 0 170 0 170 -197 -1 c-125 0 -215 -5 -243 -13z"/>
<path d="M3342 1598 l3 -593 169 -3 c129 -2 171 1 178 10 4 7 8 159 8 338 0
179 0 369 0 424 l0 98 71 -4 c63 -3 74 -7 95 -31 28 -33 30 -56 9 -97 -16 -30
-38 -40 -95 -43 l-32 -2 1 -160 2 -160 83 -185 83 -185 181 -3 c164 -2 182 -1
182 14 0 13 -93 246 -140 349 -5 11 -19 44 -31 72 l-21 53 55 60 c72 78 97
142 97 253 0 124 -33 202 -119 280 -103 93 -170 107 -510 107 l-271 0 2 -592z"/>
<path d="M7212 1598 l3 -593 169 -3 c129 -2 171 1 178 10 4 7 8 204 8 437 l0
423 71 -4 c63 -3 74 -7 95 -31 28 -32 30 -56 9 -97 -16 -31 -43 -44 -92 -42
l-33 1 0 -161 0 -161 39 -86 c22 -47 59 -131 84 -186 l43 -100 182 -3 c171 -2
182 -1 182 16 0 14 -53 147 -110 277 -5 11 -25 59 -46 107 l-36 88 55 60 c72
78 97 142 97 253 0 87 -20 161 -59 215 -30 42 -94 98 -140 122 -87 44 -140 50
-428 50 l-273 0 2 -592z"/>
</g>
</svg>